<?xml version="1.0" encoding="UTF-8"?>
<svg width="386px" height="386px" viewBox="0 0 386 386" version="1.1" xmlns="http://www.w3.org/2000/svg" xmlns:xlink="http://www.w3.org/1999/xlink">
    <!-- Generator: Sketch 48.1 (47250) - http://www.bohemiancoding.com/sketch -->
    <title>chirunning-circle</title>
    <desc>Created with Sketch.</desc>
    <defs></defs>
    <g id="Desktop-HD-Copy-4" stroke="none" stroke-width="1" fill="none" fill-rule="evenodd" transform="translate(-334.000000, -1272.000000)">
        <g id="chirunning-circle" transform="translate(334.000000, 1272.000000)">
            <circle id="Oval-Copy-2" fill="#81C723" cx="193" cy="193" r="193"></circle>
            <path d="M186.020133,234.598266 C194.346589,244.420693 202.513228,253.879722 210.474769,263.509762 C215.618206,269.727604 217.831669,276.69629 215.583579,284.907476 C214.193173,289.981684 213.615169,295.274999 212.698886,300.322487 C152.8395,310.460215 91.9972412,263.344095 89.256383,198.285213 C94.1547681,205.120296 98.0409802,211.746961 103.0832,217.323513 C113.047778,228.334999 122.788613,239.835468 134.210188,249.176928 C149.635173,261.791639 163.198293,259.798295 176.913239,245.291778 C180.088266,241.933021 182.925014,238.253619 186.020133,234.598266 Z M205.068699,112.481663 C208.424852,111.10289 210.092274,110.421519 212.497517,109.435535 C208.648595,104.794198 205.188561,100.615124 200.577846,95.0546045 C204.312232,95.9844751 206.712148,96.2543514 208.835048,97.1681898 C222.086525,102.862312 235.338002,108.56445 248.456298,114.55784 C253.796843,116.994743 255.88778,129.756416 251.322347,136.564779 C248.528216,140.727821 243.800302,143.765933 239.479921,146.603642 C238.289286,147.38655 234.709389,146.301701 233.473473,144.936288 C224.076244,134.560748 214.990659,123.8993 205.068699,112.481663 Z M239.066262,192.383206 C254.477929,190.60897 269.093177,188.930927 283.708424,187.247541 C283.894877,187.931584 284.076002,188.615626 284.262455,189.299669 C268.102312,195.832812 251.939506,202.355267 235.787354,208.904443 C232.044977,210.419491 229.434636,209.032701 228.142783,205.526981 C224.392415,195.357189 220.301105,185.256869 217.472347,174.822545 C216.207131,170.167847 217.221968,164.708865 217.981098,159.736195 C218.740227,154.763524 222.152316,151.762821 227.365008,151.949864 C232.367274,152.126219 234.19984,156.022056 234.855089,160.147689 C235.891235,166.654112 236.304095,173.256728 237.103179,179.803231 C237.563984,183.581499 238.267178,187.32503 239.066262,192.383206 Z M161.878473,184.479305 C167.964829,166.667472 173.435891,150.669956 178.893635,134.664423 C180.26806,130.634984 181.583885,126.58684 182.960973,122.5574 C185.113173,116.262069 188.463999,114.910015 193.751271,118.987552 C199.121116,123.131889 203.963565,127.962941 209.021767,132.513429 C212.332639,135.492756 215.614211,138.504148 219.106208,141.681206 C217.215042,147.220349 213.523274,145.983194 210.129831,143.917705 C204.376425,140.41733 198.849428,136.540197 192.515355,132.350435 C183.155417,150.050042 177.087705,168.984133 161.878473,184.479305 Z M225.742601,297.933681 C230.00971,296.693854 232.42028,296.132725 234.73496,295.299048 C283.114172,277.823892 312.595045,228.359047 305.251463,177.031789 C297.846618,125.287693 256.739071,87.7321401 203.003333,83.6198672 C154.757302,79.9244329 107.683261,113.522691 93.1319406,161.456455 C90.3937459,170.482614 90.7400157,177.365795 97.8731725,184.313104 C104.710668,190.966489 109.872751,199.324637 116.505149,206.22385 C124.003221,214.026213 132.028688,221.393033 140.371126,228.28423 C146.702535,233.513417 153.305633,233.366454 159.605078,228.065123 C164.439537,223.998274 169.31395,219.397018 172.48365,214.028885 C180.919313,199.74682 188.49463,184.946378 196.309672,170.300915 C199.71377,163.92275 202.675708,157.298758 206.27425,151.040835 C207.206515,149.42425 209.787556,148.764255 211.612131,147.668718 C212.283362,149.918577 213.740359,152.272647 213.455352,154.391576 C212.927957,158.364903 211.702694,162.330213 210.20308,166.071072 C207.179879,173.616919 208.287942,180.326417 212.080927,187.452754 C213.812276,190.704629 213.828258,195.69066 212.808094,199.388766 C211.492269,204.161033 208.357196,208.428285 206.106442,212.722256 C228.209107,237.01112 238.754353,263.857127 225.742601,297.933681 M65.7251499,145.955127 C69.4129515,149.154528 73.0981432,152.356547 77.3940536,156.084818 C78.2553236,153.757267 79.077445,151.542297 79.8943466,149.322091 C99.7661946,95.2857238 152.590755,62.2156454 210.499419,67.5645623 C265.858201,72.675226 312.377222,116.759937 321.305721,172.576658 C329.900151,226.298844 302.968499,279.641396 254.672131,304.555882 C206.772469,329.26615 147.102116,320.199435 109.09662,281.560514 C80.94353,252.94132 68.8622607,218.15896 73.3565242,178.006738 C74.0768591,171.560808 73.8524069,165.827021 70.2168035,160.195342 C67.674752,156.262854 66.0409489,151.738659 64,147.4789 C64.5767899,146.970976 65.1509699,146.463051 65.7251499,145.955127" id="Combined-Shape" fill="#FFFFFF"></path>
        </g>
    </g>
</svg>