<?xml version="1.0" encoding="UTF-8"?>
<svg width="386px" height="386px" viewBox="0 0 386 386" version="1.1" xmlns="http://www.w3.org/2000/svg" xmlns:xlink="http://www.w3.org/1999/xlink">
    <!-- Generator: Sketch 48.1 (47250) - http://www.bohemiancoding.com/sketch -->
    <title>chiwalking-circle</title>
    <desc>Created with Sketch.</desc>
    <defs></defs>
    <g id="Desktop-HD-Copy-4" stroke="none" stroke-width="1" fill="none" fill-rule="evenodd" transform="translate(-811.000000, -1272.000000)">
        <g id="chiwalking-circle" transform="translate(811.000000, 1272.000000)">
            <circle id="Oval-Copy" fill="#3DC3A5" cx="193" cy="193" r="193"></circle>
            <path d="M187.519682,219.85662 C195.993083,230.383677 204.659928,240.96552 213.108807,251.717199 C218.075691,258.03946 219.824863,265.016409 217.628862,273.193163 C215.656277,280.539915 214.969686,288.226338 213.310425,295.671704 C212.93716,297.350884 211.076281,299.69023 209.57232,299.969637 C189.108104,303.788194 158.922636,300.03264 139.014231,287.034751 C155.170908,264.657563 171.316687,242.296811 187.519682,219.85662 Z M223.433925,169.99744 C238.483631,164.916539 252.397562,160.220021 266.311493,155.520797 C266.531667,155.926836 266.749156,156.335582 266.96933,156.741621 C266.029562,157.629493 265.178401,158.641883 264.136602,159.386288 C252.416357,167.750691 240.80083,176.274802 228.879207,184.341443 C220.101777,190.28044 218.262518,189.779658 212.666873,180.792662 C207.667309,172.766625 202.501272,164.754123 198.540823,156.202942 C196.489445,151.777117 196.524351,146.211677 196.290751,141.128069 C196.062522,136.101306 199.338283,132.262884 203.924349,132.46049 C206.987992,132.595836 210.784653,135.638422 212.653448,138.456332 C214.943796,141.91037 215.550617,146.493197 216.914622,150.580656 C218.94452,156.671241 221.001269,162.750997 223.433925,169.99744 Z M158.794659,101.823014 C174.951244,94.5038516 189.401578,93.6730886 204.235402,97.3791363 C205.071854,97.5903472 206.155629,97.8240873 206.605812,98.4351909 C211.035395,104.495536 212.841687,111.299344 211.232698,118.717072 C209.679287,125.864449 204.652238,130.299879 198.485836,133.268096 C197.265894,133.853855 194.603698,132.583773 193.225359,131.420705 C182.040244,121.980985 171.002412,112.358215 158.794659,101.823014 Z M170.60094,178.256423 C163.969974,170.619933 157.062835,163.192395 150.953531,155.163075 C149.801411,153.647478 150.830787,148.646566 152.532465,147.111468 C159.77994,140.583815 167.498865,134.538144 175.429801,128.849084 C177.061738,127.676168 180.345141,128.798936 182.864182,128.860228 C182.632642,131.286855 183.277048,134.401629 182.007764,136.006378 C177.608507,141.561709 172.735012,146.782717 167.660663,151.744624 C164.745493,154.597512 164.346575,157.099361 166.374641,160.487166 C168.310649,163.718953 170.179705,167.042679 171.574523,170.525208 C172.428152,172.65373 172.330515,175.163937 172.659692,177.501411 L170.60094,178.256423 Z M225.508308,296.099032 C274.237173,282.783387 308.588503,232.350481 304.801357,180.169915 C300.875257,126.055415 258.663553,81.8927245 205.065888,75.827956 C151.143999,69.7275769 100.902999,103.13585 84.7681185,156.110808 C68.9792577,207.938008 94.3667651,259.168044 128.581867,280.424866 C133.546026,271.445502 138.526533,262.49901 143.452549,253.522385 C160.353033,222.721908 174.193829,190.773672 180.419462,155.856055 C181.520187,149.676237 183.737984,143.666254 185.863146,137.730232 C186.369915,136.311284 188.574089,135.508675 189.996313,134.423919 C191.08069,135.897652 192.84076,137.264554 193.096869,138.872512 C193.538249,141.611793 193.263067,144.534606 192.884353,147.323194 C191.462129,157.822859 191.244164,167.815757 200.303346,175.688451 C201.940811,177.112877 203.210458,180.87117 202.518419,182.761274 C199.739361,190.354562 203.254051,194.808633 208.719531,199.081912 C211.433199,201.199376 213.825368,203.924961 215.811577,206.768335 C228.903117,225.507757 238.400955,245.370285 232.921852,269.199291 C230.878428,278.088259 228.093921,286.804651 225.508308,296.099032 M119.555379,296.386657 C84.9125206,270.905864 65.1512422,237.078481 63.1541353,193.855363 C61.5466412,159.07745 72.5293674,128.345454 95.3203633,102.092184 C138.807164,52.0016886 214.569175,43.4167814 268.10145,82.374838 C322.67996,122.091675 338.21816,196.602862 304.319108,254.415391 C271.076677,311.110293 196.322755,338.730465 127.996085,301.70908 C119.754273,310.751447 111.774018,319.50619 103.796489,328.260932 C103.199809,327.819908 102.603129,327.378884 102.009173,326.93786 C107.77708,316.895655 113.544986,306.850711 119.555379,296.386657" id="Combined-Shape" fill="#FFFFFF"></path>
        </g>
    </g>
</svg>