<svg xmlns="http://www.w3.org/2000/svg" xmlns:xlink="http://www.w3.org/1999/xlink" id="Layer_1" x="0px" y="0px" viewBox="0 0 50 50" xml:space="preserve">
<circle fill="#FFFFFF" cx="95.2" cy="25.1" r="24.9"></circle>
<path fill="#787878" d="M34.6,18.4h-7.2c-0.4,0-0.8-0.3-0.8-0.8v-4.8c0-0.1,0-0.1,0-0.2c0.5-4.2,5.9-4.4,8-4.3V2  c-2.7-0.5-13.8-2-16.2,7.1c0,0.1,0,0.1-0.1,0.2c-0.1,0.4-0.2,1.5-0.3,2.7c-0.1,2.3-0.1,5.1-0.1,5.6c0,0.4-0.3,0.8-0.7,0.8l-5.5,0v7  h5.9c0.4,0,0.8,0.3,0.8,0.8v22.4h8.1V26.1c0-0.4,0.3-0.8,0.8-0.8h6.7L34.6,18.4L34.6,18.4z"></path>
<path fill="#787878" d="M28.1,16.9h7.3l0.1,0c0.4,0,0.7,0.4,0.7,0.8l-0.8,8.4c0,0.4-0.3,0.7-0.8,0.7H28v22.4c0,0.4-0.3,0.8-0.8,0.8  h-9.6c-0.4,0-0.8-0.3-0.8-0.8V26.9H11c-0.4,0-0.8-0.3-0.8-0.8v-8.5c0-0.4,0.3-0.8,0.8-0.8h5.5c0-1.1,0-3.2,0.1-5  c0.1-1.3,0.2-2.5,0.4-3c0,0,0-0.1,0-0.1C20-2.7,34.5,0.4,35.5,0.7c0.2,0,0.4,0.2,0.5,0.3c0.1,0.1,0.1,0.3,0.1,0.4  c0,2.6,0.1,5.2,0,7.8c0,0.4-0.4,0.7-0.8,0.7c0,0-6.7-0.8-7.2,3V16.9L28.1,16.9z"></path>
<circle fill="#FFFFFF" cx="101.2" cy="70.1" r="12.8"></circle>
<circle fill="#FFFFFF" cx="73.3" cy="70.1" r="12.8"></circle>
<circle fill="#FFFFFF" cx="25" cy="84.6" r="24.9"></circle>
<path fill="#787878" d="M80.4,66.6c0,0.1,0,0.2,0,0.3c0,2.4-0.9,4.9-2.6,6.9c-1.7,1.9-4.1,3.3-7.2,3.4c-0.2,0-0.4,0-0.5,0  c-1,0-2-0.1-2.9-0.4c-0.9-0.3-1.8-0.7-2.7-1.2c-0.1-0.1-0.2-0.2-0.1-0.4c0.1-0.1,0.2-0.1,0.3-0.1c0.9,0.1,1.8,0,2.7-0.2  c0.6-0.2,1.2-0.4,1.8-0.8c-0.5-0.1-1-0.3-1.5-0.7c-0.6-0.5-1.1-1.1-1.4-1.9c0-0.1,0-0.3,0.2-0.3c0,0,0.1,0,0.1,0c0.1,0,0.2,0,0.4,0  c-0.4-0.2-0.8-0.6-1.1-0.9c-0.5-0.7-0.9-1.5-0.8-2.4c0-0.1,0.1-0.3,0.3-0.3c0,0,0.1,0,0.1,0l0,0c0.2,0.1,0.4,0.2,0.6,0.2  c-0.4-0.5-0.7-1-0.8-1.6c-0.2-0.9-0.1-1.9,0.4-2.8c0.1-0.1,0.2-0.2,0.4-0.1c0,0,0.1,0,0.1,0.1c0.9,1,1.9,1.9,3.1,2.5  c1.1,0.6,2.3,0.9,3.6,1c0-0.2,0-0.3,0-0.5c0-0.9,0.3-1.7,0.8-2.3c0.5-0.7,1.2-1.1,2.1-1.3c0.3-0.1,0.6-0.1,0.9-0.1  c0.5,0,1,0.1,1.5,0.3c0.4,0.2,0.8,0.5,1.2,0.8c0.3-0.1,0.7-0.2,1-0.3c0.4-0.1,0.7-0.3,1-0.5c0.1-0.1,0.3,0,0.4,0.1  c0,0.1,0,0.2,0,0.2c-0.1,0.4-0.4,0.8-0.6,1.2c-0.1,0.1-0.1,0.1-0.2,0.2c0.3-0.1,0.6-0.2,0.9-0.3c0.1-0.1,0.3,0,0.4,0.1  c0,0.1,0,0.2,0,0.3c-0.2,0.4-0.5,0.7-0.8,1C81,66.1,80.7,66.3,80.4,66.6L80.4,66.6z M79.8,66.9c0-0.2,0-0.3,0-0.4  c0-0.1,0-0.2,0.1-0.2c0.3-0.2,0.6-0.5,0.9-0.8c0.1-0.1,0.1-0.2,0.2-0.2l-0.1,0c-0.4,0.1-0.7,0.2-1.1,0.2c-0.1,0-0.2,0-0.3-0.1  c-0.1-0.1,0-0.3,0.1-0.4c0.3-0.2,0.6-0.5,0.9-0.8c0.1-0.1,0.2-0.2,0.2-0.4c-0.1,0.1-0.3,0.1-0.4,0.2c-0.4,0.1-0.8,0.3-1.2,0.3  c-0.1,0-0.2,0-0.2-0.1c-0.3-0.3-0.7-0.6-1.1-0.8c-0.4-0.2-0.8-0.3-1.3-0.3c-0.3,0-0.5,0-0.7,0.1c-0.7,0.2-1.4,0.6-1.8,1.1  c-0.4,0.6-0.7,1.3-0.7,2c0,0.2,0,0.5,0.1,0.7c0,0,0,0,0,0.1c0,0.1-0.1,0.3-0.3,0.3c-1.5-0.1-2.9-0.5-4.1-1.1  c-1.2-0.6-2.2-1.4-3.1-2.4c-0.3,0.6-0.3,1.4-0.2,2c0.2,0.8,0.6,1.5,1.4,2c0.1,0,0.1,0.1,0.1,0.2c0,0.1-0.1,0.3-0.3,0.3  c-0.3,0-0.6-0.1-0.9-0.1c-0.1,0-0.3-0.1-0.4-0.1c0.1,0.6,0.3,1.2,0.7,1.7c0.5,0.6,1.1,1,1.9,1.1c0.1,0,0.2,0.1,0.2,0.2  c0,0.1,0,0.3-0.2,0.3c-0.3,0.1-0.6,0.1-0.9,0.1c-0.1,0-0.3,0-0.4,0c0.2,0.5,0.6,0.9,1,1.2c0.5,0.4,1.2,0.6,1.9,0.6  c0.1,0,0.2,0,0.2,0.1c0.1,0.1,0.1,0.3,0,0.4c-0.8,0.6-1.6,1-2.6,1.3c-0.6,0.2-1.1,0.2-1.7,0.3c0.5,0.2,1,0.5,1.6,0.6  c0.9,0.3,1.8,0.4,2.7,0.4c0.2,0,0.3,0,0.5,0c2.9-0.1,5.2-1.4,6.8-3.3C79,71.5,79.8,69.2,79.8,66.9L79.8,66.9z"></path>
<path fill="#787878" d="M109.5,66.3c-0.1-0.6-0.2-1-0.3-1.2c-0.1-0.2-0.2-0.3-0.3-0.4l0,0c-0.1-0.1-0.3-0.2-0.6-0.2  c-0.3-0.1-0.6-0.1-1-0.1c-0.7,0-1.5-0.1-2.6-0.1c-1,0-2.2,0-3.4,0c-1.2,0-2.4,0-3.4,0c-1,0-1.9,0.1-2.6,0.1c-0.4,0-0.7,0.1-1,0.1  c-0.3,0.1-0.5,0.1-0.6,0.2c-0.1,0.1-0.2,0.2-0.3,0.4c-0.1,0.2-0.2,0.6-0.3,1.2l0,0c-0.1,0.9-0.2,2.4-0.2,3.8c0,1.5,0.1,2.9,0.2,3.8  c0.1,0.6,0.2,1,0.3,1.2c0.1,0.2,0.2,0.3,0.3,0.4c0.1,0.1,0.3,0.2,0.6,0.2l0,0c0.3,0.1,0.6,0.1,1,0.1c0.7,0,1.6,0.1,2.6,0.1  c1,0,2.2,0,3.4,0c1.2,0,2.4,0,3.4,0c1,0,1.9-0.1,2.6-0.1c0.4,0,0.7-0.1,1-0.1c0.3-0.1,0.5-0.1,0.6-0.2l0,0c0.1-0.1,0.2-0.2,0.3-0.4  c0.1-0.2,0.2-0.6,0.3-1.2c0.1-0.9,0.2-2.4,0.2-3.8C109.6,68.6,109.6,67.2,109.5,66.3L109.5,66.3z M109.7,64.9  c0.1,0.3,0.2,0.7,0.3,1.4c0.1,0.9,0.2,2.4,0.2,3.9c0,1.5-0.1,3-0.2,3.9c-0.1,0.7-0.2,1.1-0.3,1.4c-0.1,0.3-0.3,0.5-0.4,0.6l0,0  c-0.2,0.2-0.5,0.3-0.8,0.3c-0.3,0.1-0.7,0.1-1.1,0.1c-0.7,0-1.6,0.1-2.6,0.1c-1.1,0-2.2,0-3.4,0c-1.2,0-2.3,0-3.4,0  c-1,0-1.9-0.1-2.6-0.1c-0.4,0-0.8-0.1-1.1-0.1l0,0c-0.3-0.1-0.6-0.2-0.8-0.3c-0.1-0.1-0.3-0.3-0.4-0.6c-0.1-0.3-0.2-0.7-0.3-1.4  c-0.1-0.9-0.2-2.4-0.2-3.9c0-1.5,0.1-3,0.2-3.9l0,0c0.1-0.7,0.2-1.1,0.3-1.4c0.1-0.3,0.3-0.5,0.4-0.6c0.2-0.2,0.5-0.3,0.8-0.3  c0.3-0.1,0.7-0.1,1.1-0.1c0.7,0,1.5-0.1,2.6-0.1c1.1,0,2.2,0,3.4,0c1.2,0,2.4,0,3.4,0c1,0,1.9,0.1,2.6,0.1c0.4,0,0.8,0.1,1.1,0.1  c0.3,0.1,0.6,0.2,0.8,0.3l0,0C109.4,64.4,109.5,64.5,109.7,64.9L109.7,64.9z M99,72.8l0-5.4c0-0.1,0.1-0.3,0.3-0.3c0,0,0.1,0,0.1,0  l5.2,2.7c0.1,0.1,0.2,0.2,0.1,0.4c0,0.1-0.1,0.1-0.1,0.1l-5.2,2.7c-0.1,0.1-0.3,0-0.4-0.1C99,72.9,99,72.9,99,72.8L99,72.8z   M99.5,67.9v4.5l4.3-2.3L99.5,67.9L99.5,67.9z"></path>
<path fill="#787878" d="M24.3,68.3c-2.1,0-3.3,0-4.1,0c-0.9,0-1.4,0-2.3,0.1c-0.9,0-1.6,0.1-2.2,0.3c-0.6,0.1-1.2,0.3-1.7,0.5  c-0.5,0.2-1,0.4-1.5,0.7c-0.5,0.3-0.9,0.6-1.3,1.1c-0.4,0.4-0.8,0.9-1.1,1.3c-0.3,0.5-0.5,0.9-0.7,1.5c-0.2,0.5-0.4,1.1-0.5,1.7  c-0.1,0.6-0.2,1.4-0.3,2.2c0,0.9-0.1,1.5-0.1,2.4c0,0.8,0,2.1,0,4.5c0,2.3,0,3.6,0,4.5c0,0.9,0,1.5,0.1,2.4c0,0.9,0.1,1.6,0.3,2.2  c0.1,0.6,0.3,1.2,0.5,1.7c0.2,0.5,0.4,1,0.7,1.5c0.3,0.5,0.6,0.9,1.1,1.3l0,0c0.4,0.4,0.9,0.8,1.3,1.1c0.5,0.3,0.9,0.5,1.5,0.7  c0.5,0.2,1.1,0.4,1.7,0.5c0.6,0.1,1.4,0.2,2.2,0.3c0.9,0,1.5,0.1,2.4,0.1c0.8,0,2.1,0,4.5,0c2.3,0,3.6,0,4.5,0c0.9,0,1.5,0,2.4-0.1  c0.9,0,1.6-0.1,2.2-0.3c0.6-0.1,1.2-0.3,1.7-0.5c0.5-0.2,1-0.4,1.5-0.7c0.5-0.3,0.9-0.6,1.3-1.1c0.4-0.4,0.8-0.9,1.1-1.3  c0.3-0.5,0.5-0.9,0.7-1.5c0.2-0.5,0.4-1.1,0.5-1.7c0.1-0.6,0.2-1.4,0.3-2.2c0-0.9,0.1-1.4,0.1-2.3c0-0.9,0-2.1,0-4.1l0-0.8  c0-2.1,0-3.3,0-4.1c0-0.9,0-1.4-0.1-2.3c0-0.9-0.1-1.6-0.3-2.2c-0.1-0.6-0.3-1.2-0.5-1.7c-0.2-0.5-0.4-1-0.7-1.5  c-0.3-0.5-0.6-0.9-1.1-1.3c-0.4-0.4-0.9-0.8-1.3-1.1c-0.5-0.3-0.9-0.5-1.5-0.7c-0.5-0.2-1.1-0.4-1.7-0.5c-0.6-0.1-1.4-0.2-2.2-0.3  c-0.9,0-1.4-0.1-2.3-0.1c-0.9,0-2.1,0-4.1,0L24.3,68.3L24.3,68.3z M20.1,67.3c0.9,0,2.1,0,4.2,0l0.8,0c2.1,0,3.3,0,4.2,0  c0.9,0,1.5,0,2.3,0.1c0.9,0,1.7,0.1,2.4,0.3c0.7,0.1,1.3,0.3,1.8,0.5c0.6,0.2,1.1,0.5,1.6,0.8c0.5,0.3,1,0.7,1.5,1.2  c0.5,0.5,0.9,1,1.2,1.5c0.3,0.5,0.6,1.1,0.8,1.6c0.2,0.6,0.4,1.2,0.5,1.8c0.1,0.7,0.2,1.5,0.3,2.4c0,0.9,0.1,1.4,0.1,2.3  c0,0.9,0,2.1,0,4.2l0,0.8c0,2.1,0,3.3,0,4.2c0,0.9,0,1.5-0.1,2.3c0,0.9-0.1,1.7-0.3,2.4c-0.1,0.7-0.3,1.3-0.5,1.8  c-0.2,0.6-0.5,1.1-0.8,1.6c-0.3,0.5-0.7,1-1.2,1.5c-0.5,0.5-1,0.9-1.5,1.2c-0.5,0.3-1.1,0.6-1.6,0.8c-0.6,0.2-1.2,0.4-1.8,0.5  c-0.7,0.1-1.5,0.2-2.4,0.3c-0.9,0-1.5,0.1-2.4,0.1c-1,0-2.3,0-4.5,0c-2.2,0-3.5,0-4.5,0c-1,0-1.5,0-2.4-0.1c-0.9,0-1.7-0.1-2.4-0.3  c-0.7-0.1-1.3-0.3-1.8-0.5c-0.6-0.2-1.1-0.5-1.6-0.8c-0.5-0.3-1-0.7-1.5-1.2l0,0c-0.5-0.5-0.9-1-1.2-1.5c-0.3-0.5-0.6-1.1-0.8-1.6  c-0.2-0.6-0.4-1.2-0.5-1.8c-0.1-0.7-0.2-1.5-0.3-2.4c0-0.9-0.1-1.5-0.1-2.4c0-1,0-2.3,0-4.5c0-2.2,0-3.5,0-4.5c0-1,0-1.5,0.1-2.4  c0-0.9,0.1-1.7,0.3-2.4c0.1-0.7,0.3-1.3,0.5-1.8c0.2-0.6,0.5-1.1,0.8-1.6c0.3-0.5,0.7-1,1.2-1.5c0.5-0.5,1-0.9,1.5-1.2  c0.5-0.3,1.1-0.6,1.6-0.8c0.6-0.2,1.2-0.4,1.8-0.5c0.7-0.1,1.5-0.2,2.4-0.3C18.7,67.4,19.2,67.3,20.1,67.3L20.1,67.3z M36.1,75.6  c0,0.7-0.3,1.3-0.7,1.8l0,0c-0.5,0.5-1.1,0.7-1.8,0.7c-0.7,0-1.3-0.3-1.8-0.7l0,0c-0.5-0.5-0.7-1.1-0.7-1.8c0-0.7,0.3-1.3,0.7-1.8  l0,0c0.5-0.5,1.1-0.7,1.8-0.7c0.7,0,1.3,0.3,1.8,0.7l0,0C35.9,74.3,36.1,74.9,36.1,75.6L36.1,75.6z M34.7,76.7  c0.3-0.3,0.4-0.6,0.4-1.1c0-0.4-0.2-0.8-0.4-1.1c-0.3-0.3-0.6-0.4-1.1-0.4c-0.4,0-0.8,0.2-1.1,0.4c-0.3,0.3-0.4,0.6-0.4,1.1  c0,0.4,0.2,0.8,0.4,1.1c0.3,0.3,0.6,0.4,1.1,0.4C34,77.1,34.4,76.9,34.7,76.7L34.7,76.7z M24.7,90.6c-1.7,0-3.2-0.7-4.3-1.8  c-1.1-1.1-1.8-2.6-1.8-4.3c0-1.7,0.7-3.2,1.8-4.3c1.1-1.1,2.6-1.8,4.3-1.8s3.2,0.7,4.3,1.8c1.1,1.1,1.8,2.6,1.8,4.3  c0,1.7-0.7,3.2-1.8,4.3C27.9,89.9,26.4,90.6,24.7,90.6L24.7,90.6z M21.1,88.1c0.9,0.9,2.2,1.5,3.6,1.5c1.4,0,2.7-0.6,3.6-1.5  c0.9-0.9,1.5-2.2,1.5-3.6c0-1.4-0.6-2.7-1.5-3.6c-0.9-0.9-2.2-1.5-3.6-1.5c-1.4,0-2.7,0.6-3.6,1.5c-0.9,0.9-1.5,2.2-1.5,3.6  C19.6,85.9,20.2,87.2,21.1,88.1L21.1,88.1z M24.7,76.4c-2.2,0-4.3,0.9-5.7,2.4c-1.5,1.5-2.4,3.5-2.4,5.7c0,2.2,0.9,4.3,2.4,5.7  c1.5,1.5,3.5,2.4,5.7,2.4c2.2,0,4.3-0.9,5.7-2.4c1.5-1.5,2.4-3.5,2.4-5.7c0-2.2-0.9-4.3-2.4-5.7C29,77.3,26.9,76.4,24.7,76.4  L24.7,76.4z M18.3,78.1c1.6-1.6,3.9-2.7,6.4-2.7s4.8,1,6.4,2.7c1.6,1.6,2.7,3.9,2.7,6.4c0,2.5-1,4.8-2.7,6.4  c-1.6,1.6-3.9,2.7-6.4,2.7s-4.8-1-6.4-2.7c-1.6-1.6-2.7-3.9-2.7-6.4C15.6,82,16.6,79.7,18.3,78.1L18.3,78.1z M24.7,70.3  c2.1,0,3.4,0,4.4,0c0.9,0,1.5,0,2.4,0.1c0.8,0,1.5,0.1,2,0.2c0.5,0.1,0.9,0.2,1.2,0.4c0.4,0.2,0.8,0.3,1.1,0.6  c0.3,0.2,0.7,0.5,1,0.8l0,0c0.3,0.3,0.6,0.6,0.8,1c0.2,0.3,0.4,0.7,0.6,1.1c0.1,0.3,0.3,0.7,0.4,1.2c0.1,0.5,0.2,1.2,0.2,2  c0,0.9,0.1,1.4,0.1,2.4c0,1,0,2.2,0,4.4c0,2.1,0,3.4,0,4.4c0,0.9,0,1.5-0.1,2.4c0,0.8-0.1,1.5-0.2,2c-0.1,0.5-0.2,0.9-0.4,1.2  c-0.2,0.4-0.3,0.8-0.6,1.1c-0.2,0.3-0.5,0.7-0.8,1c-0.3,0.3-0.6,0.6-1,0.8c-0.3,0.2-0.7,0.4-1.1,0.6c-0.3,0.1-0.7,0.3-1.2,0.4  c-0.5,0.1-1.2,0.2-2,0.2c-0.9,0-1.4,0.1-2.4,0.1c-1,0-2.2,0-4.4,0c-2.1,0-3.4,0-4.4,0c-0.9,0-1.5,0-2.4-0.1c-0.8,0-1.5-0.1-2-0.2  c-0.5-0.1-0.9-0.2-1.2-0.4c-0.4-0.2-0.8-0.3-1.1-0.6c-0.3-0.2-0.7-0.5-1-0.8c-0.3-0.3-0.6-0.6-0.8-1c-0.2-0.3-0.4-0.7-0.6-1.1  c-0.1-0.3-0.3-0.7-0.4-1.2c-0.1-0.5-0.2-1.2-0.2-2c0-0.9-0.1-1.4-0.1-2.4c0-1,0-2.2,0-4.4c0-2.1,0-3.4,0-4.4c0-0.9,0-1.5,0.1-2.4  c0-0.8,0.1-1.5,0.2-2c0.1-0.5,0.2-0.9,0.4-1.2c0.2-0.4,0.3-0.8,0.6-1.1c0.2-0.3,0.5-0.7,0.8-1c0.3-0.3,0.6-0.6,1-0.8  c0.3-0.2,0.7-0.4,1.1-0.6c0.3-0.1,0.7-0.3,1.2-0.4c0.5-0.1,1.2-0.2,2-0.2c0.9,0,1.4-0.1,2.4-0.1C21.3,70.3,22.6,70.3,24.7,70.3  L24.7,70.3z M29.1,71.3c-0.8,0-2.1,0-4.4,0s-3.6,0-4.4,0c-0.9,0-1.5,0-2.3,0.1c-0.8,0-1.4,0.1-1.9,0.2c-0.5,0.1-0.8,0.2-1.1,0.3  c-0.4,0.1-0.7,0.3-0.9,0.5c-0.3,0.2-0.5,0.4-0.8,0.7c-0.3,0.3-0.5,0.5-0.7,0.8c-0.2,0.3-0.3,0.6-0.5,0.9c-0.1,0.3-0.2,0.6-0.3,1.1  c-0.1,0.5-0.2,1.1-0.2,1.9c0,0.9-0.1,1.5-0.1,2.3c0,0.8,0,2.1,0,4.4s0,3.6,0,4.4c0,0.9,0,1.5,0.1,2.3c0,0.8,0.1,1.4,0.2,1.9  c0.1,0.5,0.2,0.8,0.3,1.1c0.1,0.4,0.3,0.7,0.5,0.9c0.2,0.3,0.4,0.5,0.7,0.8c0.3,0.3,0.5,0.5,0.8,0.7c0.3,0.2,0.6,0.3,0.9,0.5  c0.3,0.1,0.6,0.2,1.1,0.3c0.5,0.1,1.1,0.2,1.9,0.2c0.9,0,1.5,0.1,2.3,0.1c0.8,0,2.1,0,4.4,0s3.6,0,4.4,0c0.9,0,1.5,0,2.3-0.1  c0.8,0,1.4-0.1,1.9-0.2c0.5-0.1,0.8-0.2,1.1-0.3c0.4-0.1,0.7-0.3,0.9-0.5c0.3-0.2,0.5-0.4,0.8-0.7c0.3-0.3,0.5-0.5,0.7-0.8  c0.2-0.3,0.3-0.6,0.5-0.9c0.1-0.3,0.2-0.6,0.3-1.1c0.1-0.5,0.2-1.1,0.2-1.9c0-0.9,0.1-1.5,0.1-2.3c0-0.8,0-2.1,0-4.4  c0-2.3,0-3.6,0-4.4c0-0.9,0-1.5-0.1-2.3c0-0.8-0.1-1.4-0.2-1.9c-0.1-0.5-0.2-0.8-0.3-1.1c-0.1-0.4-0.3-0.7-0.5-0.9  c-0.2-0.3-0.4-0.5-0.7-0.8l0,0c-0.3-0.3-0.5-0.5-0.8-0.7c-0.3-0.2-0.6-0.3-0.9-0.5c-0.3-0.1-0.6-0.2-1.1-0.3  c-0.5-0.1-1.1-0.2-1.9-0.2C30.6,71.4,30,71.3,29.1,71.3L29.1,71.3z"></path>
<g>
</g>
<g>
</g>
<g>
</g>
<g>
</g>
<g>
</g>
<g>
</g>
</svg>