<svg xmlns="http://www.w3.org/2000/svg" xmlns:xlink="http://www.w3.org/1999/xlink" id="Layer_1" x="0px" y="0px" viewBox="0 0 50 50" xml:space="preserve">
<circle fill="#FFFFFF" cx="95.2" cy="25.1" r="24.9"></circle>
<path fill="#787878" d="M-12.4,16.9h7.3l0.1,0c0.4,0,0.7,0.4,0.7,0.8l-0.8,8.4c0,0.4-0.3,0.7-0.8,0.7h-6.6v22.4  c0,0.4-0.3,0.8-0.8,0.8H-23c-0.4,0-0.8-0.3-0.8-0.8V26.9h-5.9c-0.4,0-0.8-0.3-0.8-0.8v-8.5c0-0.4,0.3-0.8,0.8-0.8h5.5  c0-1.1,0-3.2,0.1-5c0.1-1.3,0.2-2.5,0.4-3c0,0,0-0.1,0-0.1C-20.6-2.7-6,0.4-5,0.7c0.2,0,0.4,0.2,0.5,0.3c0.1,0.1,0.1,0.3,0.1,0.4  c0,2.6,0.1,5.2,0,7.8c0,0.4-0.4,0.7-0.8,0.7c0,0-6.7-0.8-7.2,3V16.9L-12.4,16.9z"></path>
<circle fill="#FFFFFF" cx="101.2" cy="70.1" r="12.8"></circle>
<circle fill="#FFFFFF" cx="73.3" cy="70.1" r="12.8"></circle>
<circle fill="#FFFFFF" cx="25" cy="84.6" r="24.9"></circle>
<path fill="#787878" d="M80.4,66.6c0,0.1,0,0.2,0,0.3c0,2.4-0.9,4.9-2.6,6.9c-1.7,1.9-4.1,3.3-7.2,3.4c-0.2,0-0.4,0-0.5,0  c-1,0-2-0.1-2.9-0.4c-0.9-0.3-1.8-0.7-2.7-1.2c-0.1-0.1-0.2-0.2-0.1-0.4c0.1-0.1,0.2-0.1,0.3-0.1c0.9,0.1,1.8,0,2.7-0.2  c0.6-0.2,1.2-0.4,1.8-0.8c-0.5-0.1-1-0.3-1.5-0.7c-0.6-0.5-1.1-1.1-1.4-1.9c0-0.1,0-0.3,0.2-0.3c0,0,0.1,0,0.1,0c0.1,0,0.2,0,0.4,0  c-0.4-0.2-0.8-0.6-1.1-0.9c-0.5-0.7-0.9-1.5-0.8-2.4c0-0.1,0.1-0.3,0.3-0.3c0,0,0.1,0,0.1,0l0,0c0.2,0.1,0.4,0.2,0.6,0.2  c-0.4-0.5-0.7-1-0.8-1.6c-0.2-0.9-0.1-1.9,0.4-2.8c0.1-0.1,0.2-0.2,0.4-0.1c0,0,0.1,0,0.1,0.1c0.9,1,1.9,1.9,3.1,2.5  c1.1,0.6,2.3,0.9,3.6,1c0-0.2,0-0.3,0-0.5c0-0.9,0.3-1.7,0.8-2.3c0.5-0.7,1.2-1.1,2.1-1.3c0.3-0.1,0.6-0.1,0.9-0.1  c0.5,0,1,0.1,1.5,0.3c0.4,0.2,0.8,0.5,1.2,0.8c0.3-0.1,0.7-0.2,1-0.3c0.4-0.1,0.7-0.3,1-0.5c0.1-0.1,0.3,0,0.4,0.1  c0,0.1,0,0.2,0,0.2c-0.1,0.4-0.4,0.8-0.6,1.2c-0.1,0.1-0.1,0.1-0.2,0.2c0.3-0.1,0.6-0.2,0.9-0.3c0.1-0.1,0.3,0,0.4,0.1  c0,0.1,0,0.2,0,0.3c-0.2,0.4-0.5,0.7-0.8,1C81,66.1,80.7,66.3,80.4,66.6L80.4,66.6z M79.8,66.9c0-0.2,0-0.3,0-0.4  c0-0.1,0-0.2,0.1-0.2c0.3-0.2,0.6-0.5,0.9-0.8c0.1-0.1,0.1-0.2,0.2-0.2l-0.1,0c-0.4,0.1-0.7,0.2-1.1,0.2c-0.1,0-0.2,0-0.3-0.1  c-0.1-0.1,0-0.3,0.1-0.4c0.3-0.2,0.6-0.5,0.9-0.8c0.1-0.1,0.2-0.2,0.2-0.4c-0.1,0.1-0.3,0.1-0.4,0.2c-0.4,0.1-0.8,0.3-1.2,0.3  c-0.1,0-0.2,0-0.2-0.1c-0.3-0.3-0.7-0.6-1.1-0.8c-0.4-0.2-0.8-0.3-1.3-0.3c-0.3,0-0.5,0-0.7,0.1c-0.7,0.2-1.4,0.6-1.8,1.1  c-0.4,0.6-0.7,1.3-0.7,2c0,0.2,0,0.5,0.1,0.7c0,0,0,0,0,0.1c0,0.1-0.1,0.3-0.3,0.3c-1.5-0.1-2.9-0.5-4.1-1.1  c-1.2-0.6-2.2-1.4-3.1-2.4c-0.3,0.6-0.3,1.4-0.2,2c0.2,0.8,0.6,1.5,1.4,2c0.1,0,0.1,0.1,0.1,0.2c0,0.1-0.1,0.3-0.3,0.3  c-0.3,0-0.6-0.1-0.9-0.1c-0.1,0-0.3-0.1-0.4-0.1c0.1,0.6,0.3,1.2,0.7,1.7c0.5,0.6,1.1,1,1.9,1.1c0.1,0,0.2,0.1,0.2,0.2  c0,0.1,0,0.3-0.2,0.3c-0.3,0.1-0.6,0.1-0.9,0.1c-0.1,0-0.3,0-0.4,0c0.2,0.5,0.6,0.9,1,1.2c0.5,0.4,1.2,0.6,1.9,0.6  c0.1,0,0.2,0,0.2,0.1c0.1,0.1,0.1,0.3,0,0.4c-0.8,0.6-1.6,1-2.6,1.3c-0.6,0.2-1.1,0.2-1.7,0.3c0.5,0.2,1,0.5,1.6,0.6  c0.9,0.3,1.8,0.4,2.7,0.4c0.2,0,0.3,0,0.5,0c2.9-0.1,5.2-1.4,6.8-3.3C79,71.5,79.8,69.2,79.8,66.9L79.8,66.9z"></path>
<path fill="#787878" d="M109.5,66.3c-0.1-0.6-0.2-1-0.3-1.2c-0.1-0.2-0.2-0.3-0.3-0.4l0,0c-0.1-0.1-0.3-0.2-0.6-0.2  c-0.3-0.1-0.6-0.1-1-0.1c-0.7,0-1.5-0.1-2.6-0.1c-1,0-2.2,0-3.4,0c-1.2,0-2.4,0-3.4,0c-1,0-1.9,0.1-2.6,0.1c-0.4,0-0.7,0.1-1,0.1  c-0.3,0.1-0.5,0.1-0.6,0.2c-0.1,0.1-0.2,0.2-0.3,0.4c-0.1,0.2-0.2,0.6-0.3,1.2l0,0c-0.1,0.9-0.2,2.4-0.2,3.8c0,1.5,0.1,2.9,0.2,3.8  c0.1,0.6,0.2,1,0.3,1.2c0.1,0.2,0.2,0.3,0.3,0.4c0.1,0.1,0.3,0.2,0.6,0.2l0,0c0.3,0.1,0.6,0.1,1,0.1c0.7,0,1.6,0.1,2.6,0.1  c1,0,2.2,0,3.4,0c1.2,0,2.4,0,3.4,0c1,0,1.9-0.1,2.6-0.1c0.4,0,0.7-0.1,1-0.1c0.3-0.1,0.5-0.1,0.6-0.2l0,0c0.1-0.1,0.2-0.2,0.3-0.4  c0.1-0.2,0.2-0.6,0.3-1.2c0.1-0.9,0.2-2.4,0.2-3.8C109.6,68.6,109.6,67.2,109.5,66.3L109.5,66.3z M109.7,64.9  c0.1,0.3,0.2,0.7,0.3,1.4c0.1,0.9,0.2,2.4,0.2,3.9c0,1.5-0.1,3-0.2,3.9c-0.1,0.7-0.2,1.1-0.3,1.4c-0.1,0.3-0.3,0.5-0.4,0.6l0,0  c-0.2,0.2-0.5,0.3-0.8,0.3c-0.3,0.1-0.7,0.1-1.1,0.1c-0.7,0-1.6,0.1-2.6,0.1c-1.1,0-2.2,0-3.4,0c-1.2,0-2.3,0-3.4,0  c-1,0-1.9-0.1-2.6-0.1c-0.4,0-0.8-0.1-1.1-0.1l0,0c-0.3-0.1-0.6-0.2-0.8-0.3c-0.1-0.1-0.3-0.3-0.4-0.6c-0.1-0.3-0.2-0.7-0.3-1.4  c-0.1-0.9-0.2-2.4-0.2-3.9c0-1.5,0.1-3,0.2-3.9l0,0c0.1-0.7,0.2-1.1,0.3-1.4c0.1-0.3,0.3-0.5,0.4-0.6c0.2-0.2,0.5-0.3,0.8-0.3  c0.3-0.1,0.7-0.1,1.1-0.1c0.7,0,1.5-0.1,2.6-0.1c1.1,0,2.2,0,3.4,0c1.2,0,2.4,0,3.4,0c1,0,1.9,0.1,2.6,0.1c0.4,0,0.8,0.1,1.1,0.1  c0.3,0.1,0.6,0.2,0.8,0.3l0,0C109.4,64.4,109.5,64.5,109.7,64.9L109.7,64.9z M99,72.8l0-5.4c0-0.1,0.1-0.3,0.3-0.3c0,0,0.1,0,0.1,0  l5.2,2.7c0.1,0.1,0.2,0.2,0.1,0.4c0,0.1-0.1,0.1-0.1,0.1l-5.2,2.7c-0.1,0.1-0.3,0-0.4-0.1C99,72.9,99,72.9,99,72.8L99,72.8z   M99.5,67.9v4.5l4.3-2.3L99.5,67.9L99.5,67.9z"></path>
<path fill="#787878" d="M49.9,24.5c0-3,0-4.7,0-6c0-1.3-0.1-2.1-0.1-3.4c-0.1-1.3-0.2-2.4-0.4-3.4c-0.2-1-0.5-1.9-0.8-2.7  c-0.3-0.8-0.7-1.6-1.2-2.4c-0.5-0.8-1.1-1.5-1.8-2.2c-0.7-0.7-1.4-1.3-2.2-1.8c-0.7-0.5-1.5-0.9-2.4-1.2c-0.8-0.3-1.7-0.6-2.7-0.8  c-1-0.2-2.1-0.3-3.4-0.4c-1.2-0.1-2.1-0.1-3.4-0.1c-1.3,0-3,0-6,0l-1.2,0c-3,0-4.7,0-6,0c-1.3,0-2.1,0.1-3.4,0.1  c-1.3,0.1-2.4,0.2-3.4,0.4c-1,0.2-1.9,0.5-2.7,0.8C8,1.8,7.3,2.1,6.5,2.6C5.8,3.1,5,3.7,4.3,4.4C3.6,5.1,3,5.8,2.6,6.6  C2.1,7.3,1.7,8.1,1.4,8.9c-0.3,0.8-0.6,1.7-0.8,2.7c-0.2,1-0.3,2.1-0.4,3.4c-0.1,1.3-0.1,2.1-0.1,3.5c0,1.5,0,3.3,0,6.5  c0,3.2,0,5,0,6.5c0,1.4,0.1,2.2,0.1,3.5c0.1,1.3,0.2,2.4,0.4,3.4c0.2,1,0.5,1.9,0.8,2.7c0.3,0.8,0.7,1.6,1.2,2.4  C3,44.3,3.6,45,4.3,45.7l0,0C5,46.4,5.8,47,6.5,47.5C7.3,48,8,48.3,8.9,48.7c0.8,0.3,1.7,0.6,2.7,0.8c1,0.2,2.1,0.3,3.4,0.4  c1.3,0.1,2.1,0.1,3.5,0.1c1.5,0,3.3,0,6.5,0s5,0,6.5,0c1.4,0,2.2-0.1,3.5-0.1c1.3-0.1,2.4-0.2,3.4-0.4c1-0.2,1.9-0.5,2.7-0.8  c0.8-0.3,1.6-0.7,2.4-1.2c0.8-0.5,1.5-1.1,2.2-1.8c0.7-0.7,1.3-1.4,1.8-2.2c0.5-0.7,0.9-1.5,1.2-2.4c0.3-0.8,0.6-1.7,0.8-2.7  c0.2-1,0.3-2.1,0.4-3.4c0.1-1.2,0.1-2.1,0.1-3.4c0-1.3,0-3,0-6L49.9,24.5z M31.9,33.9c-1.8,1.8-4.2,2.9-6.9,2.9s-5.2-1.1-6.9-2.9  c-1.8-1.8-2.9-4.2-2.9-6.9c0-2.7,1.1-5.2,2.9-6.9c1.8-1.8,4.2-2.9,6.9-2.9s5.2,1.1,6.9,2.9c1.8,1.8,2.9,4.2,2.9,6.9  C34.8,29.6,33.7,32.1,31.9,33.9z M40.5,14.7L40.5,14.7c-0.7,0.7-1.6,1.1-2.6,1.1c-1,0-1.9-0.4-2.6-1.1l0,0c-0.7-0.7-1.1-1.6-1.1-2.6  c0-1,0.4-1.9,1.1-2.6l0,0c0.7-0.7,1.6-1.1,2.6-1.1c1,0,1.9,0.4,2.6,1.1l0,0c0.7,0.7,1.1,1.6,1.1,2.6C41.6,13.1,41.2,14,40.5,14.7z"></path>
<g>
</g>
<g>
</g>
<g>
</g>
<g>
</g>
<g>
</g>
<g>
</g>
</svg>